<svg viewBox="0 0 125 125" fill="none" xmlns="http://www.w3.org/2000/svg">
<path d="M91.9773 15.6924C96.4352 15.6924 100.71 17.4633 103.863 20.6154C107.015 23.7676 108.786 28.0429 108.786 32.5007V62.3523C103.383 58.8916 97.1001 57.0569 90.6844 57.0667C81.1424 57.0667 72.5314 61.0439 66.4131 67.4258H45.4156L44.8985 67.4621C43.9701 67.5898 43.1193 68.0493 42.5035 68.7557C41.8876 69.4621 41.5483 70.3675 41.5483 71.3047C41.5483 72.2418 41.8876 73.1473 42.5035 73.8537C43.1193 74.5601 43.9701 75.0196 44.8985 75.1473L45.4156 75.1835H60.8483C58.357 79.9698 57.0599 85.2876 57.0677 90.6834C57.0578 97.0991 58.8925 103.382 62.3533 108.785H32.5017C28.0438 108.785 23.7685 107.014 20.6164 103.862C17.4642 100.709 15.6933 96.4342 15.6933 91.9764V48.6471C17.4001 49.2489 19.2237 49.4444 21.0192 49.218C22.8148 48.9915 24.5327 48.3494 26.0366 47.3426C27.5405 46.3359 28.7888 44.9922 29.6824 43.4184C30.576 41.8446 31.0901 40.0841 31.1841 38.2768C31.278 36.4695 30.9491 34.6652 30.2235 33.0073C29.4979 31.3493 28.3956 29.8835 27.0041 28.7263C25.6127 27.569 23.9706 26.7523 22.2082 26.3409C20.4458 25.9296 18.6118 25.9349 16.8518 26.3566C18.0878 23.2131 20.2418 20.5146 23.0331 18.6125C25.8245 16.7104 29.1239 15.6929 32.5017 15.6924H91.9773ZM79.0582 49.2884H45.4208L44.8933 49.3246C43.9649 49.4523 43.1141 49.9118 42.4983 50.6182C41.8824 51.3246 41.5431 52.2301 41.5431 53.1672C41.5431 54.1044 41.8824 55.0098 42.4983 55.7162C43.1141 56.4226 43.9649 56.8821 44.8933 57.0099L45.4208 57.0461H79.0582L79.5857 57.0099C80.5593 56.8759 81.4457 56.3774 82.0659 55.615C82.6861 54.8527 82.9938 53.8833 82.9268 52.9028C82.8598 51.9224 82.4231 51.0038 81.705 50.3329C80.9869 49.662 80.0409 49.2887 79.0582 49.2884Z" fill="#FFFFFF"/>
<path d="M19.5726 31.207C21.2872 31.207 22.9315 31.8881 24.1439 33.1005C25.3563 34.3129 26.0374 35.9572 26.0374 37.6718C26.0374 39.3863 25.3563 41.0307 24.1439 42.243C22.9315 43.4554 21.2872 44.1365 19.5726 44.1365C17.8581 44.1365 16.2137 43.4554 15.0014 42.243C13.789 41.0307 13.1079 39.3863 13.1079 37.6718C13.1079 35.9572 13.789 34.3129 15.0014 33.1005C16.2137 31.8881 17.8581 31.207 19.5726 31.207ZM119.13 90.6827C119.13 83.1386 116.133 75.9036 110.798 70.5691C105.464 65.2347 98.2288 62.2378 90.6848 62.2378C83.1407 62.2378 75.9057 65.2347 70.5712 70.5691C65.2368 75.9036 62.2399 83.1386 62.2399 90.6827C62.2399 98.2267 65.2368 105.462 70.5712 110.796C75.9057 116.131 83.1407 119.128 90.6848 119.128C98.2288 119.128 105.464 116.131 110.798 110.796C116.133 105.462 119.13 98.2267 119.13 90.6827ZM93.2707 93.2686L93.2759 106.214C93.2759 106.899 93.0034 107.557 92.5185 108.042C92.0335 108.527 91.3758 108.799 90.69 108.799C90.0041 108.799 89.3464 108.527 88.8615 108.042C88.3765 107.557 88.1041 106.899 88.1041 106.214V93.2686H75.1487C74.4629 93.2686 73.8052 92.9961 73.3202 92.5112C72.8353 92.0262 72.5628 91.3685 72.5628 90.6827C72.5628 89.9968 72.8353 89.3391 73.3202 88.8542C73.8052 88.3692 74.4629 88.0968 75.1487 88.0968H88.0989V75.1673C88.0989 74.4815 88.3713 73.8237 88.8563 73.3388C89.3412 72.8538 89.999 72.5814 90.6848 72.5814C91.3706 72.5814 92.0284 72.8538 92.5133 73.3388C92.9983 73.8237 93.2707 74.4815 93.2707 75.1673V88.0968H106.185C106.87 88.0968 107.528 88.3692 108.013 88.8542C108.498 89.3391 108.771 89.9968 108.771 90.6827C108.771 91.3685 108.498 92.0262 108.013 92.5112C107.528 92.9961 106.87 93.2686 106.185 93.2686H93.2707Z" fill="#FFFFFF"/>
</svg>
